<?xml version="1.0" encoding="UTF-8"?>
<svg xmlns="http://www.w3.org/2000/svg" xmlns:xlink="http://www.w3.org/1999/xlink" width="200" height="200" viewBox="0 0 200 200">
<defs>
<radialGradient id="radial-pattern-0" gradientUnits="userSpaceOnUse" cx="0" cy="4" fx="9.740183" fy="16.693653" r="50" gradientTransform="matrix(3.4, 0, 0, 3.4, 100, 100)">
<stop offset="0" stop-color="rgb(58.4%, 34.5%, 69.8%)" stop-opacity="1"/>
<stop offset="1" stop-color="rgb(0%, 0%, 0%)" stop-opacity="1"/>
</radialGradient>
<radialGradient id="radial-pattern-1" gradientUnits="userSpaceOnUse" cx="0" cy="4" fx="-15.863118" fy="6.088419" r="50" gradientTransform="matrix(3.4, 0, 0, 3.4, 100, 100)">
<stop offset="0" stop-color="rgb(79.6%, 23.5%, 20%)" stop-opacity="1"/>
<stop offset="1" stop-color="rgb(0%, 0%, 0%)" stop-opacity="1"/>
</radialGradient>
<radialGradient id="radial-pattern-2" gradientUnits="userSpaceOnUse" cx="0" cy="4" fx="6.122935" fy="-10.782073" r="50" gradientTransform="matrix(3.4, 0, 0, 3.4, 100, 100)">
<stop offset="0" stop-color="rgb(22%, 59.6%, 14.9%)" stop-opacity="1"/>
<stop offset="1" stop-color="rgb(0%, 0%, 0%)" stop-opacity="1"/>
</radialGradient>
</defs>
<path fill-rule="nonzero" fill="url(#radial-pattern-0)" d="M 110.234375 180.621094 L 109.320312 193.929688 C 101.023438 195.019531 93.871094 194.058594 87.867188 191.046875 C 81.859375 188.039062 77.304688 183.566406 74.203125 177.632812 C 70.484375 170.523438 69.9375 163.5 72.558594 156.574219 C 76.3125 146.429688 85.617188 137.476562 100.476562 129.707031 C 113.277344 123.015625 126.746094 118.566406 140.890625 116.355469 C 155.035156 114.144531 166.648438 115.25 175.738281 119.679688 C 184.828125 124.105469 191.453125 130.292969 195.605469 138.238281 C 199.144531 145.003906 199.765625 151.6875 197.46875 158.289062 C 195.175781 164.890625 189.859375 170.371094 181.523438 174.726562 C 173.773438 178.777344 165.230469 180.53125 155.890625 179.980469 C 146.546875 179.433594 137.496094 175.859375 128.738281 169.257812 C 119.980469 162.660156 112.519531 153.164062 106.355469 140.777344 C 96.574219 145.953125 90.265625 151.5625 87.429688 157.605469 C 85.332031 162.074219 85.449219 166.539062 87.78125 171 C 89.550781 174.382812 92.0625 176.832031 95.320312 178.347656 C 98.578125 179.859375 103.550781 180.617188 110.234375 180.621094 Z M 120.355469 134.582031 C 121.050781 136.03125 121.589844 137.125 121.972656 137.859375 C 125.484375 144.578125 130.121094 150.132812 135.882812 154.519531 C 141.640625 158.90625 147.835938 161.289062 154.460938 161.664062 C 161.089844 162.039062 166.953125 160.894531 172.054688 158.230469 C 175.878906 156.230469 178.417969 153.589844 179.671875 150.3125 C 180.925781 147.035156 180.820312 144 179.359375 141.203125 C 176.308594 135.367188 170.707031 131.519531 162.554688 129.664062 C 150.847656 126.980469 136.78125 128.617188 120.355469 134.582031 Z M 120.355469 134.582031 "/>
<path fill-rule="nonzero" fill="url(#radial-pattern-1)" d="M 36.84375 88.949219 L 25.773438 81.507812 C 28.976562 73.777344 33.386719 68.0625 38.996094 64.367188 C 44.605469 60.667969 50.757812 58.960938 57.445312 59.242188 C 65.464844 59.578125 71.816406 62.613281 76.507812 68.347656 C 83.414062 76.667969 86.515625 89.203125 85.8125 105.957031 C 85.207031 120.386719 82.328125 134.28125 77.171875 147.632812 C 72.015625 160.988281 65.246094 170.496094 56.867188 176.152344 C 48.488281 181.8125 39.820312 184.453125 30.863281 184.078125 C 23.234375 183.757812 17.132812 180.953125 12.5625 175.667969 C 7.992188 170.378906 5.90625 163.035156 6.300781 153.636719 C 6.667969 144.902344 9.421875 136.625 14.570312 128.808594 C 19.714844 120.992188 27.335938 114.945312 37.429688 110.660156 C 47.523438 106.375 59.476562 104.660156 73.285156 105.515625 C 73.695312 94.457031 71.992188 86.1875 68.179688 80.710938 C 65.359375 76.660156 61.429688 74.527344 56.398438 74.316406 C 52.585938 74.15625 49.207031 75.109375 46.269531 77.175781 C 43.328125 79.238281 40.1875 83.164062 36.84375 88.949219 Z M 71.652344 120.734375 C 70.050781 120.613281 68.835938 120.53125 68.007812 120.5 C 60.433594 120.179688 53.304688 121.417969 46.625 124.214844 C 39.941406 127.007812 34.78125 131.179688 31.144531 136.734375 C 27.503906 142.285156 25.566406 147.9375 25.324219 153.6875 C 25.144531 158 26.160156 161.515625 28.371094 164.242188 C 30.582031 166.964844 33.265625 168.390625 36.417969 168.523438 C 42.996094 168.800781 49.128906 165.871094 54.8125 159.742188 C 62.992188 150.945312 68.605469 137.941406 71.652344 120.734375 Z M 71.652344 120.734375 "/>
<path fill-rule="nonzero" fill="url(#radial-pattern-2)" d="M 152.921875 71.230469 L 164.902344 65.363281 C 169.996094 72.003906 172.742188 78.679688 173.136719 85.386719 C 173.535156 92.09375 171.941406 98.273438 168.351562 103.925781 C 164.050781 110.703125 158.246094 114.6875 150.933594 115.878906 C 140.277344 117.699219 127.867188 114.121094 113.710938 105.136719 C 101.515625 97.398438 90.925781 87.953125 81.9375 76.8125 C 72.953125 65.667969 68.105469 55.054688 67.394531 44.96875 C 66.683594 34.882812 68.730469 26.054688 73.53125 18.488281 C 77.625 12.039062 83.101562 8.160156 89.964844 6.84375 C 96.828125 5.53125 104.230469 7.394531 112.175781 12.4375 C 119.558594 17.121094 125.347656 23.644531 129.542969 32.011719 C 133.738281 40.375 135.167969 50 133.832031 60.882812 C 132.496094 71.765625 128.003906 82.976562 120.355469 94.507812 C 129.730469 100.390625 137.742188 103.050781 144.394531 102.488281 C 149.3125 102.070312 153.121094 99.734375 155.820312 95.480469 C 157.863281 92.257812 158.726562 88.859375 158.410156 85.28125 C 158.089844 81.703125 156.261719 77.019531 152.921875 71.230469 Z M 107.996094 85.484375 C 108.902344 84.15625 109.578125 83.144531 110.019531 82.445312 C 114.082031 76.042969 116.574219 69.25 117.496094 62.066406 C 118.417969 54.886719 117.382812 48.332031 114.394531 42.402344 C 111.40625 36.476562 107.480469 31.96875 102.621094 28.886719 C 98.976562 26.574219 95.421875 25.695312 91.957031 26.246094 C 88.492188 26.800781 85.914062 28.410156 84.222656 31.074219 C 80.695312 36.632812 80.164062 43.40625 82.632812 51.398438 C 86.160156 62.878906 94.613281 74.238281 107.996094 85.484375 Z M 107.996094 85.484375 "/>
</svg>
